<svg xmlns="http://www.w3.org/2000/svg" viewBox="0 0 512 512">
  <defs>
    <linearGradient id="bg" x1="0%" y1="0%" x2="100%" y2="100%">
      <stop offset="0%" style="stop-color:#1a1a2e"/>
      <stop offset="100%" style="stop-color:#16213e"/>
    </linearGradient>
  </defs>
  <!-- Background -->
  <rect width="512" height="512" rx="64" fill="url(#bg)"/>
  <!-- Document shape -->
  <rect x="120" y="80" width="272" height="352" rx="16" fill="#fff" opacity="0.95"/>
  <!-- Header line -->
  <rect x="160" y="120" width="192" height="16" rx="4" fill="#4a90e2"/>
  <!-- Text lines -->
  <rect x="160" y="160" width="160" height="8" rx="2" fill="#333" opacity="0.3"/>
  <rect x="160" y="180" width="192" height="8" rx="2" fill="#333" opacity="0.3"/>
  <!-- Section -->
  <rect x="160" y="220" width="80" height="10" rx="2" fill="#4a90e2" opacity="0.7"/>
  <rect x="160" y="245" width="192" height="6" rx="2" fill="#333" opacity="0.2"/>
  <rect x="160" y="260" width="180" height="6" rx="2" fill="#333" opacity="0.2"/>
  <rect x="160" y="275" width="160" height="6" rx="2" fill="#333" opacity="0.2"/>
  <!-- Section 2 -->
  <rect x="160" y="310" width="60" height="10" rx="2" fill="#4a90e2" opacity="0.7"/>
  <rect x="160" y="335" width="192" height="6" rx="2" fill="#333" opacity="0.2"/>
  <rect x="160" y="350" width="140" height="6" rx="2" fill="#333" opacity="0.2"/>
  <!-- Checkmark badge -->
  <circle cx="392" cy="392" r="56" fill="#4ae24a"/>
  <path d="M365 392 L385 412 L420 370" stroke="#fff" stroke-width="12" stroke-linecap="round" stroke-linejoin="round" fill="none"/>
</svg>
